<?xml version="1.0" encoding="UTF-8"?>
<svg xmlns="http://www.w3.org/2000/svg" xmlns:xlink="http://www.w3.org/1999/xlink" width="px" height="75px" viewBox="0 0 75 75" version="1.1">
<g id="surface1">
<rect x="0" y="0" width="75" height="75" style="fill:rgb(31.764706%,16.862745%,83.137255%);fill-opacity:1;stroke:none;"/>
<path style=" stroke:none;fill-rule:nonzero;fill:rgb(100%,100%,100%);fill-opacity:1;" d="M 13.367188 47.917969 C 12.835938 47.917969 12.386719 47.738281 12.015625 47.386719 C 11.644531 47.023438 11.457031 46.59375 11.457031 46.09375 C 11.457031 45.585938 11.644531 45.152344 12.015625 44.789062 C 12.386719 44.429688 12.835938 44.246094 13.367188 44.246094 C 13.90625 44.246094 14.363281 44.429688 14.734375 44.789062 C 15.113281 45.152344 15.304688 45.585938 15.304688 46.09375 C 15.304688 46.59375 15.113281 47.023438 14.734375 47.386719 C 14.363281 47.738281 13.90625 47.917969 13.367188 47.917969 Z M 13.367188 47.917969 "/>
<path style=" stroke:none;fill-rule:nonzero;fill:rgb(100%,100%,100%);fill-opacity:1;" d="M 34.566406 47.617188 L 31.121094 47.617188 L 22.039062 33.289062 C 21.808594 32.929688 21.617188 32.550781 21.46875 32.164062 L 21.390625 32.164062 C 21.460938 32.578125 21.496094 33.472656 21.496094 34.839844 L 21.496094 47.617188 L 18.445312 47.617188 L 18.445312 28.125 L 22.117188 28.125 L 30.894531 42.113281 C 31.265625 42.691406 31.503906 43.089844 31.609375 43.308594 L 31.664062 43.308594 C 31.574219 42.792969 31.53125 41.917969 31.53125 40.683594 L 31.53125 28.125 L 34.566406 28.125 Z M 34.566406 47.617188 "/>
<path style=" stroke:none;fill-rule:nonzero;fill:rgb(100%,100%,100%);fill-opacity:1;" d="M 49.414062 47.617188 L 38.742188 47.617188 L 38.742188 28.125 L 48.992188 28.125 L 48.992188 30.871094 L 41.898438 30.871094 L 41.898438 36.390625 L 48.433594 36.390625 L 48.433594 39.121094 L 41.898438 39.121094 L 41.898438 44.886719 L 49.414062 44.886719 Z M 49.414062 47.617188 "/>
<path style=" stroke:none;fill-rule:nonzero;fill:rgb(100%,100%,100%);fill-opacity:1;" d="M 64.582031 30.871094 L 59.121094 30.871094 L 59.121094 47.617188 L 55.964844 47.617188 L 55.964844 30.871094 L 50.515625 30.871094 L 50.515625 28.125 L 64.582031 28.125 Z M 64.582031 30.871094 "/>
</g>
</svg>
